<?xml version="1.0" encoding="UTF-8" standalone="no"?>
<!-- Generator: Adobe Illustrator 19.0.0, SVG Export Plug-In . SVG Version: 6.00 Build 0)  -->

<svg
   xmlns:dc="http://purl.org/dc/elements/1.1/"
   xmlns:cc="http://creativecommons.org/ns#"
   xmlns:rdf="http://www.w3.org/1999/02/22-rdf-syntax-ns#"
   xmlns:svg="http://www.w3.org/2000/svg"
   xmlns="http://www.w3.org/2000/svg"
   xmlns:xlink="http://www.w3.org/1999/xlink"
   xmlns:sodipodi="http://sodipodi.sourceforge.net/DTD/sodipodi-0.dtd"
   xmlns:inkscape="http://www.inkscape.org/namespaces/inkscape"
   version="1.1"
   id="Capa_1"
   x="0px"
   y="0px"
   viewBox="0 0 488.4 488.4"
   style="enable-background:new 0 0 488.4 488.4;"
   xml:space="preserve"
   sodipodi:docname="pc.svg"
   inkscape:version="0.92.4 (5da689c313, 2019-01-14)"
   inkscape:export-filename="/home/ari/Bin/Mi/inicio/pc.png"
   inkscape:export-xdpi="96"
   inkscape:export-ydpi="96"><metadata
   id="metadata49"><rdf:RDF><cc:Work
       rdf:about=""><dc:format>image/svg+xml</dc:format><dc:type
         rdf:resource="http://purl.org/dc/dcmitype/StillImage" /><dc:title></dc:title></cc:Work></rdf:RDF></metadata><defs
   id="defs47"><linearGradient
   inkscape:collect="always"
   id="linearGradient870"><stop
     style="stop-color:#00d8ff;stop-opacity:1"
     offset="0"
     id="stop866" /><stop
     id="stop874"
     offset="0.5577457"
     style="stop-color:#563add;stop-opacity:1" /><stop
     style="stop-color:#0086ff;stop-opacity:1"
     offset="1"
     id="stop868" /></linearGradient>
	

		
		
		
		
	<linearGradient
   inkscape:collect="always"
   xlink:href="#linearGradient870"
   id="linearGradient872"
   x1="8.2779655"
   y1="463.5661"
   x2="504.95593"
   y2="80.710167"
   gradientUnits="userSpaceOnUse" /></defs><sodipodi:namedview
   pagecolor="#ffffff"
   bordercolor="#666666"
   borderopacity="1"
   objecttolerance="10"
   gridtolerance="10"
   guidetolerance="10"
   inkscape:pageopacity="0"
   inkscape:pageshadow="2"
   inkscape:window-width="1920"
   inkscape:window-height="1000"
   id="namedview45"
   showgrid="false"
   inkscape:zoom="0.34168141"
   inkscape:cx="-257.69999"
   inkscape:cy="-98.037157"
   inkscape:window-x="0"
   inkscape:window-y="0"
   inkscape:window-maximized="1"
   inkscape:current-layer="Capa_1" />
<path
   d="M 0 0 L 0 348.09961 L 488.40039 348.09961 L 488.40039 0 L 0 0 z M 36.400391 27.099609 L 452 27.099609 C 457.4 27.099609 461.69922 31.400781 461.69922 36.800781 L 461.69922 311.30078 C 461.69922 316.70078 457.4 321 452 321 L 36.400391 321 C 31.000391 321 26.699219 316.70078 26.699219 311.30078 L 26.699219 36.800781 C 26.699219 31.400781 31.000391 27.099609 36.400391 27.099609 z M 46.099609 46.5 L 46.099609 301.59961 L 442.30078 301.59961 L 442.30078 46.5 L 46.099609 46.5 z M 268.59961 88 L 285.80078 88 C 289.30078 88 291.69922 91.700391 290.19922 94.900391 L 214.30078 257.40039 C 213.50078 259.00039 212 260.09961 210 260.09961 L 192.80078 260.09961 C 189.40078 260.09961 187 256.39922 188.5 253.19922 L 264.30078 90.699219 C 265.10078 89.099219 266.59961 88 268.59961 88 z M 314.3418 111.56641 C 314.895 111.59797 315.45625 111.7375 316 112 L 398.40039 150.30078 C 400.00039 151.10078 401.09961 152.59961 401.09961 154.59961 L 401.09961 176.30078 C 401.09961 178.20078 399.90039 179.79961 398.40039 180.59961 L 316 218.5 C 313 219.9 309.59961 217.70039 309.59961 214.40039 L 309.59961 194.19922 L 309.69922 194.19922 C 309.69922 192.29922 310.90039 190.70039 312.40039 189.90039 L 367.09961 164.69922 L 312.40039 139.90039 C 310.80039 139.10039 309.69922 137.59961 309.69922 135.59961 L 309.69922 116 C 309.69922 113.31875 311.9446 111.42961 314.3418 111.56641 z M 174.45898 111.67578 C 176.85618 111.56089 179.09961 113.49961 179.09961 116.09961 L 179.09961 136.09961 C 179.09961 137.99961 177.90039 139.60039 176.40039 140.40039 L 121.69922 165.19922 L 176.40039 190.40039 C 178.00039 191.20039 179.09961 192.69922 179.09961 194.69922 L 179.09961 215.09961 C 179.09961 218.29961 175.80078 220.49961 172.80078 219.09961 L 90.300781 181.19922 C 88.700781 180.39922 87.599609 178.90039 87.599609 176.90039 L 87.599609 154.69922 C 87.599609 152.79922 88.800781 151.20039 90.300781 150.40039 L 172.80078 112.09961 C 173.34453 111.83711 173.90579 111.70229 174.45898 111.67578 z M 143 367.5 L 143 433.80078 L 345 433.80078 L 345 367.5 L 143 367.5 z M 103.09961 453.5 L 103.09961 488.40039 L 385.30078 488.40039 L 385.30078 453.5 L 103.09961 453.5 z "
   id="rect2"
   style="fill-opacity:1;fill:url(#linearGradient872)" />
<g
   id="g14">
</g>
<g
   id="g16">
</g>
<g
   id="g18">
</g>
<g
   id="g20">
</g>
<g
   id="g22">
</g>
<g
   id="g24">
</g>
<g
   id="g26">
</g>
<g
   id="g28">
</g>
<g
   id="g30">
</g>
<g
   id="g32">
</g>
<g
   id="g34">
</g>
<g
   id="g36">
</g>
<g
   id="g38">
</g>
<g
   id="g40">
</g>
<g
   id="g42">
</g>
</svg>